#N canvas 1200 85 670 577 10;
#X obj 182 305 phasor~;
#X obj 182 341 *~;
#X obj 82 325 tgl 15 0 empty empty empty 17 7 0 10 -262144 -1 -1 1
1;
#X obj 82 345 metro 50;
#X obj 82 367 snapshot~;
#X obj 82 412 /;
#X obj 102 102 hsl 195 15 0 1 0 0 empty empty empty -2 -8 0 10 -262144
-1 -1 4813 1;
#X floatatom 305 102 5 0 0 1 - - -, f 5;
#X floatatom 182 214 5 0 0 0 - - -, f 5;
#X obj 182 275 *;
#X obj 182 233 expr pow(2 \, $f1);
#X obj 102 73 r \$0-position;
#X obj 182 376 tabread4~ channelL;
#X obj 188 396 tabread4~ channelR;
#X obj 82 434 s \$0-position;
#X floatatom 242 327 10 0 0 0 - - -, f 10;
#X obj 182 153 bng 15 250 50 0 empty empty empty 17 7 0 10 -262144
-1 -1;
#X obj 182 444 *~;
#X obj 227 444 *~;
#X obj 242 417 r volume;
#X obj 182 466 dac~ 1 2;
#X obj 82 305 loadbang;
#X obj 382 212 f \$1;
#X obj 382 170 loadbang;
#X obj 432 212 f \$2;
#X obj 382 274 s \$0-st;
#X obj 432 274 s \$0-sampleSize;
#X obj 242 305 r \$0-sampleSize;
#X obj 182 192 r \$0-st;
#X obj 305 73 r \$0-st;
#X obj 532 212 f \$3;
#X obj 197 255 r \$0-phasorFreq;
#X obj 532 274 s \$0-phasorFreq;
#X floatatom 392 254 5 0 0 0 - - -, f 5;
#X floatatom 542 254 5 0 0 0 - - -, f 5;
#X floatatom 442 254 5 0 0 0 - - -, f 5;
#X floatatom 383 377 5 0 0 0 - - -, f 5;
#N canvas 726 185 450 693 (subpatch) 0;
#X array \$0-array 100 float 0 black black;
#X coords 0 50000 99 -1 200 100 1;
#X restore 449 348 graph;
#X obj 346 441 metro 500;
#X text 348 482 graph the output;
#X obj 330 465 tabwrite~ \$0-array;
#X obj 346 416 tgl 15 0 empty empty empty 17 7 0 10 -262144 -1 -1 1
1;
#X floatatom 316 271 5 0 0 0 - - -, f 5;
#X floatatom 251 279 5 0 0 0 - - -, f 5;
#X connect 0 0 1 0;
#X connect 0 0 40 0;
#X connect 1 0 4 0;
#X connect 1 0 12 0;
#X connect 1 0 13 0;
#X connect 2 0 3 0;
#X connect 3 0 4 0;
#X connect 4 0 5 0;
#X connect 5 0 14 0;
#X connect 8 0 10 0;
#X connect 9 0 0 0;
#X connect 9 0 36 0;
#X connect 10 0 9 0;
#X connect 11 0 6 0;
#X connect 12 0 17 0;
#X connect 13 0 18 0;
#X connect 16 0 2 0;
#X connect 16 0 22 0;
#X connect 16 0 24 0;
#X connect 16 0 30 0;
#X connect 17 0 20 0;
#X connect 18 0 20 1;
#X connect 19 0 17 1;
#X connect 19 0 18 1;
#X connect 21 0 2 0;
#X connect 22 0 25 0;
#X connect 22 0 33 0;
#X connect 23 0 22 0;
#X connect 23 0 24 0;
#X connect 23 0 30 0;
#X connect 24 0 26 0;
#X connect 24 0 35 0;
#X connect 27 0 1 1;
#X connect 27 0 15 0;
#X connect 27 0 5 1;
#X connect 28 0 8 0;
#X connect 29 0 7 0;
#X connect 30 0 32 0;
#X connect 30 0 34 0;
#X connect 31 0 9 1;
#X connect 31 0 43 0;
#X connect 38 0 40 0;
#X connect 41 0 38 0;
#X connect 42 0 0 0;
#X coords 0 -1 1 1 240 20 1 100 100;
