#N canvas 600 17 671 479 10;
#X obj 64 162 bng 15 250 50 0 empty empty + 17 7 0 10 -262144 -1 -1
;
#X floatatom 72 346 5 0 0 0 - - -, f 5;
#X msg 24 23 TODO \; crear reproductores que lean el mismo audio a
distinta velocidad \; hacer un boton menos (-) para hacer audios mas
graves;
#N canvas 354 345 523 262 sampleLoad 0;
#X obj 150 25 openpanel;
#X obj 150 76 soundfiler;
#X floatatom 175 106 10 0 0 0 - - -, f 10;
#X obj 175 126 s sampleSize;
#X obj 69 169 expr $f1 / $f2;
#X floatatom 69 92 10 0 0 0 sampleRate - sampleRate, f 10;
#X obj 69 112 r sampleRate;
#X floatatom 69 199 10 0 0 0 phasorFreq - phasorFreq, f 10;
#X obj 111 140 bondo 2;
#X obj 69 42 loadbang;
#X msg 69 64 44100;
#X obj 354 78 table channelL;
#X obj 354 100 table channelR;
#X msg 150 50 read -resize -maxsize 1e+007 \$1 channelL channelR;
#X obj 150 3 inlet;
#X obj 189 191 t b;
#X obj 189 213 s start;
#X connect 0 0 13 0;
#X connect 1 0 2 0;
#X connect 1 0 8 1;
#X connect 2 0 3 0;
#X connect 4 0 7 0;
#X connect 4 0 15 0;
#X connect 6 0 8 0;
#X connect 8 0 4 0;
#X connect 8 1 4 1;
#X connect 9 0 10 0;
#X connect 10 0 5 0;
#X connect 13 0 1 0;
#X connect 14 0 0 0;
#X connect 15 0 16 0;
#X restore 38 129 pd sampleLoad;
#X obj 64 406 s pd-sundrier.pd;
#X obj 457 298 vsl 15 128 0 1 0 0 empty empty volume 0 -9 0 10 -262144
-1 -1 7700 1;
#X obj 457 434 s volume;
#X obj 104 212 - 1;
#X floatatom 112 346 5 0 0 0 - - -, f 5;
#X obj 64 265 expr 20 * $f1 + 180;
#X obj 38 109 bng 15 250 50 0 empty empty empty 17 7 0 10 -262144 -1
-1;
#X obj 110 287 r sampleSize;
#X msg 104 184 0;
#X obj 64 212 f 0;
#X obj 234 410 print DEBUGEO;
#X obj 64 315 pack f f f f;
#X obj 151 309 r phasorFreq;
#X msg 64 368 obj 300 \$1 reproductor \$2 \$3 \$4;
#X floatatom 151 343 5 0 0 0 - - -, f 5;
#X floatatom 192 345 5 0 0 0 - - -, f 5;
#X obj 300 120 reproductor -2 40774 1.08157;
#X connect 0 0 13 0;
#X connect 5 0 6 0;
#X connect 7 0 13 1;
#X connect 9 0 8 0;
#X connect 9 0 15 0;
#X connect 10 0 3 0;
#X connect 11 0 15 2;
#X connect 11 0 18 0;
#X connect 12 0 13 1;
#X connect 13 0 1 0;
#X connect 13 0 7 0;
#X connect 13 0 9 0;
#X connect 13 0 15 1;
#X connect 15 0 17 0;
#X connect 16 0 15 3;
#X connect 16 0 19 0;
#X connect 17 0 4 0;
#X connect 17 0 14 0;
