#N canvas 509 239 1046 591 10;
#X obj -54 74 random 1000;
#X floatatom 9 49 5 10 10000 0 - - -;
#X obj -105 101 pipe 1000;
#X obj -105 35 bng 15 250 50 0 empty empty empty 17 7 0 10 -262144
-1 -1;
#X obj -105 149 spigot;
#X floatatom -72 127 1 0 1 0 - - -;
#X obj -194 92 line~;
#X obj -208 147 *~;
#X msg -176 35 1;
#X msg -175 60 0 100;
#X obj -261 117 osc~ 100;
#X obj -260 201 dac~;
#X obj -260 172 *~ 0.5;
#X floatatom -261 91 5 0 0 0 - - -;
#X obj -105 173 s bang1;
#X obj -105 11 r bang1;
#X connect 0 0 2 1;
#X connect 1 0 0 1;
#X connect 2 0 4 0;
#X connect 3 0 8 0;
#X connect 3 0 9 0;
#X connect 3 0 2 0;
#X connect 3 0 0 0;
#X connect 4 0 14 0;
#X connect 5 0 4 1;
#X connect 6 0 7 1;
#X connect 7 0 12 0;
#X connect 8 0 6 0;
#X connect 9 0 6 0;
#X connect 10 0 7 0;
#X connect 12 0 11 0;
#X connect 12 0 11 1;
#X connect 13 0 10 0;
#X connect 15 0 3 0;
