#N canvas 454 59 694 720 10;
#X obj 88 -38 bng 15 250 50 0 empty empty empty 17 7 0 10 -262144 -1
-1;
#X obj 88 1 openpanel;
#X obj 88 52 soundfiler;
#X floatatom 113 83 10 0 0 0 - - -, f 10;
#X obj 113 106 s sampleSize;
#X obj 7 145 expr $f1 / $f2;
#X floatatom 232 1 10 0 0 0 sampleRate - sampleRate, f 10;
#X obj 7 88 r sampleRate;
#X msg 88 26 read -resize \$1 channelL channelR;
#N canvas 0 0 450 300 (subpatch) 0;
#X array channelL 1.15748e+007 float 2 black black;
#X coords 0 1 1.15748e+007 -1 200 140 1;
#X restore 334 -19 graph;
#N canvas 0 0 450 300 (subpatch) 0;
#X array channelR 1.15748e+007 float 2 black black;
#X coords 0 1 1.15748e+007 -1 200 140 1;
#X restore 334 141 graph;
#X floatatom 47 178 10 0 0 0 - - -, f 10;
#X obj 8 222 phasor~;
#X obj 64 239 r sampleSize;
#X obj 9 393 tabread4~ channelL;
#X obj 25 427 tabread4~ channelR;
#X obj 9 258 *~;
#X obj 155 384 vsl 15 128 0 1 0 0 empty empty volume 0 -9 0 10 -262144
-1 -1 0 1;
#X obj 9 486 *~;
#X obj 54 486 *~;
#X obj 9 520 dac~ 1 2;
#X obj 3 -38 tgl 15 0 empty empty empty 17 7 0 10 -262144 -1 -1 0 1
;
#X msg 3 -17 \; pd dsp \$1;
#X msg 232 -23 44100;
#X obj 49 116 bondo 2;
#X obj 155 520 s volume;
#X obj 69 459 r volume;
#X obj 156 232 tgl 15 0 empty empty empty 17 7 0 10 -262144 -1 -1 0
1;
#X obj 156 252 metro 50;
#X obj 156 274 snapshot~;
#X obj 156 319 /;
#X obj 171 298 r sampleSize;
#X obj 337 291 hsl 195 15 0 1 0 0 empty empty empty -2 -8 0 10 -262144
-1 -1 0 1;
#X floatatom 156 343 5 0 0 0 - - -, f 5;
#X obj 337 494 hsl 195 15 0 1 0 0 empty empty empty -2 -8 0 10 -262144
-1 -1 0 1;
#X floatatom 334 448 5 0 1000 0 - - -, f 5;
#X obj 334 337 randomTime;
#X obj 334 314 tgl 15 0 empty empty empty 17 7 0 10 -262144 -1 -1 0
1;
#X obj 47 199 r phase;
#X obj 279 471 s phase;
#X obj 279 448 f;
#X floatatom 391 314 5 0 0 0 - - -, f 5;
#X msg 107 205 0;
#X msg 282 -23 48000;
#X obj 434 337 sequentialTime;
#X floatatom 515 314 5 0 0 0 - - -, f 5;
#X obj 434 314 tgl 15 0 empty empty empty 17 7 0 10 -262144 -1 -1 0
1;
#X floatatom 614 228 5 0 0 0 - - -, f 5;
#X obj 569 289 expr 60000/$f1;
#X floatatom 654 228 5 0 0 0 - - -, f 5;
#X obj 334 471 * 0.001;
#X obj 624 255 * 4;
#X obj 334 417 randomF 1;
#X floatatom 367 374 1 0 0 0 - - -, f 1;
#X obj 334 394 spigot;
#X obj 334 365 t b;
#X text 383 374 <-- inicio aleatorio;
#X obj 405 466 hradio 15 1 0 8 empty empty empty 0 -8 0 10 -262144
-1 -1 0;
#X floatatom 438 397 1 0 0 0 - - -, f 1;
#X obj 405 417 spigot;
#X obj 405 441 counter 0 7;
#X obj 544 420 sel 0 4;
#X obj 544 492 line~;
#X msg 544 469 1;
#X msg 575 469 0 100;
#X obj 631 418 osc~ 100;
#X obj 544 446 change;
#X obj 528 604 dac~ 1 2;
#X obj 620 445 *~;
#X obj 620 469 *~ 0.5;
#X text 450 397 <-- kick drum;
#X obj 122 575 +~;
#X obj 170 576 +~;
#X obj 205 430 random 730;
#X obj 205 453 * 0.0001;
#X text 118 599 [poner algo para grabar audio acá];
#X connect 0 0 23 0;
#X connect 0 0 1 0;
#X connect 1 0 8 0;
#X connect 2 0 3 0;
#X connect 2 0 24 1;
#X connect 3 0 4 0;
#X connect 5 0 11 0;
#X connect 5 0 12 0;
#X connect 7 0 24 0;
#X connect 8 0 2 0;
#X connect 12 0 16 0;
#X connect 13 0 16 1;
#X connect 14 0 18 0;
#X connect 15 0 19 0;
#X connect 16 0 14 0;
#X connect 16 0 15 0;
#X connect 16 0 29 0;
#X connect 17 0 25 0;
#X connect 18 0 20 0;
#X connect 18 0 71 0;
#X connect 19 0 20 1;
#X connect 19 0 72 0;
#X connect 21 0 22 0;
#X connect 23 0 6 0;
#X connect 24 0 5 0;
#X connect 24 1 5 1;
#X connect 26 0 18 1;
#X connect 26 0 19 1;
#X connect 27 0 28 0;
#X connect 28 0 29 0;
#X connect 29 0 30 0;
#X connect 30 0 33 0;
#X connect 31 0 30 1;
#X connect 33 0 32 0;
#X connect 34 0 40 1;
#X connect 35 0 50 0;
#X connect 36 0 55 0;
#X connect 37 0 36 0;
#X connect 38 0 12 1;
#X connect 40 0 39 0;
#X connect 41 0 36 1;
#X connect 42 0 12 1;
#X connect 43 0 6 0;
#X connect 44 0 55 0;
#X connect 45 0 44 1;
#X connect 46 0 44 0;
#X connect 47 0 51 0;
#X connect 48 0 45 0;
#X connect 49 0 51 1;
#X connect 50 0 34 0;
#X connect 51 0 48 0;
#X connect 52 0 40 1;
#X connect 53 0 54 1;
#X connect 54 0 73 0;
#X connect 55 0 54 0;
#X connect 55 0 40 0;
#X connect 55 0 59 0;
#X connect 57 0 61 0;
#X connect 58 0 59 1;
#X connect 59 0 60 0;
#X connect 60 0 57 0;
#X connect 61 0 66 0;
#X connect 61 1 66 0;
#X connect 62 0 68 0;
#X connect 63 0 62 0;
#X connect 64 0 62 0;
#X connect 65 0 68 1;
#X connect 66 0 63 0;
#X connect 66 0 64 0;
#X connect 68 0 69 0;
#X connect 69 0 67 0;
#X connect 69 0 67 1;
#X connect 69 0 72 1;
#X connect 69 0 71 1;
#X connect 73 0 74 0;
#X connect 74 0 34 0;
