#N canvas 963 184 810 708 10;
#X obj 88 -39 bng 15 250 50 0 empty empty empty 17 7 0 10 -262144 -1
-1;
#X obj 88 0 openpanel;
#X obj 88 51 soundfiler;
#X floatatom 113 82 10 0 0 0 - - -;
#X obj 113 105 s sampleSize;
#X obj 7 154 expr $f1 / $f2;
#X floatatom 232 0 10 0 0 0 sampleRate - sampleRate;
#X obj 7 87 r sampleRate;
#X msg 88 25 read -resize \$1 channelL channelR;
#N canvas 0 0 450 300 (subpatch) 0;
#X array channelL 338688 float 2;
#X coords 0 1 338688 -1 200 140 1;
#X restore 514 -20 graph;
#N canvas 0 0 450 300 (subpatch) 0;
#X array channelR 338688 float 2;
#X coords 0 1 338688 -1 200 140 1 0 0;
#X restore 514 140 graph;
#X floatatom 52 187 10 0 0 0 - - -;
#X obj 7 259 phasor~;
#X obj 63 276 r sampleSize;
#X obj 8 350 tabread4~ channelL;
#X obj 24 384 tabread4~ channelR;
#X obj 8 295 *~;
#X obj 154 441 vsl 15 128 0 1 0 0 empty empty volume 0 -9 0 10 -262144
-1 -1 0 1;
#X obj 8 543 *~;
#X obj 53 543 *~;
#X obj 8 577 dac~ 1 2;
#X obj 3 -39 tgl 15 0 empty empty empty 17 7 0 10 -262144 -1 -1 0 1
;
#X msg 3 -18 \; pd dsp \$1;
#X msg 232 -24 44100;
#X obj 154 577 s volume;
#X obj 68 516 r volume;
#X obj 155 269 tgl 15 0 empty empty empty 17 7 0 10 -262144 -1 -1 0
1;
#X obj 155 289 metro 50;
#X obj 155 311 snapshot~;
#X obj 155 356 /;
#X obj 170 335 r sampleSize;
#X obj 517 290 hsl 195 15 0 1 0 0 empty empty empty -2 -8 0 10 -262144
-1 -1 0 1;
#X floatatom 155 380 5 0 0 0 - - -;
#X msg 282 -24 48000;
#X msg 442 481 1;
#X msg 481 481 0 \$1;
#X floatatom 508 430 5 0 0 0 - - -;
#X obj 442 408 bng 15 250 50 0 empty empty empty 17 7 0 10 -262144
-1 -1;
#X obj 481 452 f 100;
#X obj 397 539 *~;
#X obj 442 513 line~;
#X floatatom 480 576 5 0 0 0 - - -;
#X obj 480 555 snapshot~;
#X obj 522 509 loadbang;
#X obj 522 532 metro 10;
#X obj 480 602 s rampVolNum;
#X msg 132 177 0;
#X obj 347 439 s bangRamp;
#X obj 132 128 r bangRamp;
#X obj 8 419 s~ playbPosL;
#X obj 23 442 s~ playbPosR;
#X obj 8 466 r~ rampVolL;
#X obj 52 492 r~ rampVolR;
#X obj 289 541 *~;
#X obj 242 514 r~ playbPosL;
#X obj 289 577 s~ rampVolL;
#X obj 350 512 r~ playbPosR;
#X obj 397 575 s~ rampVolR;
#X obj 132 154 delay 100;
#X obj 517 320 hsl 195 15 0 1 0 0 empty empty empty -2 -8 0 10 -262144
-1 -1 0 1;
#X obj 480 367 s phase;
#X obj 480 344 f;
#X obj 480 320 bng 15 250 50 0 empty empty empty 17 7 0 10 -262144
-1 -1;
#X obj 68 235 r phase;
#X floatatom 514 344 5 0 0 0 - - -;
#X obj 328 385 randomTime;
#X obj 328 363 tgl 15 0 empty empty empty 17 7 0 10 -262144 -1 -1 0
1;
#X floatatom 385 363 5 0 0 0 - - -;
#X connect 0 0 23 0;
#X connect 0 0 1 0;
#X connect 1 0 8 0;
#X connect 2 0 3 0;
#X connect 2 0 5 1;
#X connect 3 0 4 0;
#X connect 5 0 11 0;
#X connect 5 0 12 0;
#X connect 7 0 5 0;
#X connect 8 0 2 0;
#X connect 12 0 16 0;
#X connect 13 0 16 1;
#X connect 14 0 49 0;
#X connect 15 0 50 0;
#X connect 16 0 28 0;
#X connect 16 0 14 0;
#X connect 16 0 15 0;
#X connect 17 0 24 0;
#X connect 18 0 20 0;
#X connect 19 0 20 1;
#X connect 21 0 22 0;
#X connect 23 0 6 0;
#X connect 25 0 18 1;
#X connect 25 0 19 1;
#X connect 26 0 27 0;
#X connect 27 0 28 0;
#X connect 28 0 29 0;
#X connect 29 0 32 0;
#X connect 30 0 29 1;
#X connect 32 0 31 0;
#X connect 33 0 6 0;
#X connect 34 0 40 0;
#X connect 35 0 40 0;
#X connect 36 0 38 1;
#X connect 36 0 58 1;
#X connect 37 0 34 0;
#X connect 37 0 38 0;
#X connect 37 0 47 0;
#X connect 38 0 35 0;
#X connect 39 0 57 0;
#X connect 40 0 39 1;
#X connect 40 0 42 0;
#X connect 40 0 53 1;
#X connect 41 0 45 0;
#X connect 42 0 41 0;
#X connect 43 0 44 0;
#X connect 44 0 42 0;
#X connect 46 0 12 0;
#X connect 48 0 5 0;
#X connect 48 0 58 0;
#X connect 51 0 18 0;
#X connect 52 0 19 0;
#X connect 53 0 55 0;
#X connect 54 0 53 0;
#X connect 56 0 39 0;
#X connect 58 0 46 0;
#X connect 59 0 61 1;
#X connect 59 0 64 0;
#X connect 61 0 60 0;
#X connect 62 0 61 0;
#X connect 63 0 12 1;
#X connect 65 0 37 0;
#X connect 66 0 65 0;
#X connect 67 0 65 1;
