#N canvas 57 160 810 708 10;
#X obj 100 -39 bng 15 250 50 0 empty empty empty 17 7 0 10 -262144
-1 -1;
#X obj 100 0 openpanel;
#X obj 100 51 soundfiler;
#X floatatom 125 82 10 0 0 0 - - -, f 10;
#X obj 125 105 s sampleSize;
#X obj 19 144 expr $f1 / $f2;
#X floatatom 244 0 10 0 0 0 sampleRate - sampleRate, f 10;
#X obj 19 87 r sampleRate;
#X msg 100 25 read -resize \$1 channelL channelR;
#N canvas 0 0 450 300 (subpatch) 0;
#X array channelL 330332 float 2 black black;
#X coords 0 1 330332 -1 200 140 1;
#X restore 526 -20 graph;
#N canvas 0 0 450 300 (subpatch) 0;
#X array channelR 330332 float 2 black black;
#X coords 0 1 330332 -1 200 140 1;
#X restore 526 140 graph;
#X floatatom 64 177 10 0 0 0 - - -, f 10;
#X obj 20 219 phasor~;
#X obj 76 236 r sampleSize;
#X obj 21 290 tabread4~ channelL;
#X obj 37 324 tabread4~ channelR;
#X obj 21 255 *~;
#X obj 167 401 vsl 15 128 0 1 0 0 empty empty volume 0 -9 0 10 -262144
-1 -1 10200 1;
#X obj 21 503 *~;
#X obj 66 503 *~;
#X obj 21 537 dac~ 1 2;
#X obj 15 -39 tgl 15 0 empty empty empty 17 7 0 10 -262144 -1 -1 1
1;
#X msg 15 -18 \; pd dsp \$1;
#X msg 244 -24 44100;
#X obj 61 115 bondo 2;
#X obj 167 537 s volume;
#X obj 81 476 r volume;
#X obj 168 229 tgl 15 0 empty empty empty 17 7 0 10 -262144 -1 -1 1
1;
#X obj 168 249 metro 50;
#X obj 168 271 snapshot~;
#X obj 168 316 /;
#X obj 183 295 r sampleSize;
#X obj 529 290 hsl 195 15 0 1 0 0 empty empty empty -2 -8 0 10 -262144
-1 -1 11843 1;
#X floatatom 168 340 5 0 0 0 - - -, f 5;
#X msg 294 -24 48000;
#N canvas 974 352 450 323 delay 0;
#X obj 20 37 delwrite~ delL;
#X obj 36 59 delwrite~ delR;
#X obj 25 154 delread4~ delL;
#X obj 41 176 delread4~ delR;
#X obj 45 109 *~ 0.6;
#X obj 95 109 *~ 0.6;
#X obj 25 226 outlet~;
#X obj 75 226 outlet~;
#X obj 21 10 inlet~;
#X obj 71 10 inlet~;
#X floatatom 149 122 5 0 0 0 - - -, f 5;
#X msg 193 122 1000;
#X obj 148 197 vline~;
#X obj 131 10 inlet;
#X obj 171 10 inlet;
#X obj 171 32 * 0.001;
#X floatatom 171 54 5 0 0 0 - - -, f 5;
#X msg 149 156 \$1 1;
#X connect 2 0 4 0;
#X connect 2 0 6 0;
#X connect 3 0 5 0;
#X connect 3 0 7 0;
#X connect 4 0 0 0;
#X connect 5 0 1 0;
#X connect 8 0 0 0;
#X connect 9 0 1 0;
#X connect 10 0 17 0;
#X connect 11 0 17 0;
#X connect 12 0 2 0;
#X connect 12 0 3 0;
#X connect 13 0 10 0;
#X connect 14 0 15 0;
#X connect 15 0 16 0;
#X connect 16 0 5 1;
#X connect 16 0 4 1;
#X connect 17 0 12 0;
#X restore 21 405 pd delay;
#X floatatom 51 358 5 0 0 0 - - -, f 5;
#X floatatom 66 381 5 0 0 0 - - -, f 5;
#X obj 487 453 random 1000;
#X floatatom 550 428 5 10 10000 0 - - -, f 5;
#X obj 436 480 pipe 1000;
#X obj 436 414 bng 15 250 50 0 empty empty empty 17 7 0 10 -262144
-1 -1;
#X obj 436 528 spigot;
#X floatatom 469 506 1 0 1 0 - - -, f 1;
#X obj 436 552 s bang1;
#X obj 436 390 r bang1;
#X connect 0 0 23 0;
#X connect 0 0 1 0;
#X connect 1 0 8 0;
#X connect 2 0 3 0;
#X connect 2 0 24 1;
#X connect 3 0 4 0;
#X connect 5 0 11 0;
#X connect 5 0 12 0;
#X connect 7 0 24 0;
#X connect 8 0 2 0;
#X connect 12 0 16 0;
#X connect 13 0 16 1;
#X connect 14 0 35 0;
#X connect 15 0 35 1;
#X connect 16 0 14 0;
#X connect 16 0 15 0;
#X connect 16 0 29 0;
#X connect 17 0 25 0;
#X connect 18 0 20 0;
#X connect 19 0 20 1;
#X connect 21 0 22 0;
#X connect 23 0 6 0;
#X connect 24 0 5 0;
#X connect 24 1 5 1;
#X connect 26 0 18 1;
#X connect 26 0 19 1;
#X connect 27 0 28 0;
#X connect 28 0 29 0;
#X connect 29 0 30 0;
#X connect 30 0 33 0;
#X connect 31 0 30 1;
#X connect 33 0 32 0;
#X connect 34 0 6 0;
#X connect 35 0 18 0;
#X connect 35 1 19 0;
#X connect 36 0 35 2;
#X connect 37 0 35 3;
#X connect 38 0 40 1;
#X connect 38 0 36 0;
#X connect 39 0 38 1;
#X connect 40 0 42 0;
#X connect 41 0 40 0;
#X connect 41 0 38 0;
#X connect 42 0 44 0;
#X connect 43 0 42 1;
#X connect 45 0 41 0;
