#N canvas 125 63 733 618 10;
#X obj 88 -38 bng 15 250 50 0 empty empty empty 17 7 0 10 -262144 -1
-1;
#X obj 88 1 openpanel;
#X obj 88 52 soundfiler;
#X floatatom 113 83 10 0 0 0 - - -, f 10;
#X obj 113 106 s sampleSize;
#X obj 7 145 expr $f1 / $f2;
#X floatatom 232 1 10 0 0 0 sampleRate - sampleRate, f 10;
#X obj 7 88 r sampleRate;
#N canvas 0 0 450 300 (subpatch) 0;
#X array channelL 4e+006 float 2 black black;
#X coords 0 1 4e+006 -1 200 140 1;
#X restore 334 -19 graph;
#N canvas 0 0 450 300 (subpatch) 0;
#X array channelR 4e+006 float 2 black black;
#X coords 0 1 4e+006 -1 200 140 1;
#X restore 334 141 graph;
#X floatatom 47 178 10 0 0 0 - - -, f 10;
#X obj 8 222 phasor~;
#X obj 64 239 r sampleSize;
#X obj 9 393 tabread4~ channelL;
#X obj 25 427 tabread4~ channelR;
#X obj 9 258 *~;
#X obj 155 384 vsl 15 128 0 1 0 0 empty empty volume 0 -9 0 10 -262144
-1 -1 12700 1;
#X obj 9 486 *~;
#X obj 54 486 *~;
#X obj 9 530 dac~ 1 2;
#X obj 3 -38 tgl 15 0 empty empty empty 17 7 0 10 -262144 -1 -1 0 1
;
#X msg 3 -17 \; pd dsp \$1;
#X msg 232 -23 44100;
#X obj 49 116 bondo 2;
#X obj 155 520 s volume;
#X obj 69 459 r volume;
#X obj 156 232 tgl 15 0 empty empty empty 17 7 0 10 -262144 -1 -1 1
1;
#X obj 156 252 metro 50;
#X obj 156 274 snapshot~;
#X obj 156 319 /;
#X obj 171 298 r sampleSize;
#X obj 337 291 hsl 195 15 0 1 0 0 empty empty empty -2 -8 0 10 -262144
-1 -1 0 1;
#X floatatom 156 343 5 0 0 0 - - -, f 5;
#X obj 337 534 hsl 195 15 0 1 0 0 empty empty empty -2 -8 0 10 -262144
-1 -1 0 1;
#X floatatom 334 488 5 0 1000 0 - - -, f 5;
#X obj 334 337 randomTime;
#X obj 334 314 tgl 15 0 empty empty empty 17 7 0 10 -262144 -1 -1 0
1;
#X obj 47 199 r phase;
#X obj 279 511 s phase;
#X obj 279 488 f;
#X floatatom 391 314 5 0 0 0 - - -, f 5;
#X msg 107 205 0;
#X msg 282 -23 48000;
#X obj 434 337 sequentialTime;
#X floatatom 515 314 5 0 0 0 - - -, f 5;
#X obj 434 314 tgl 15 0 empty empty empty 17 7 0 10 -262144 -1 -1 0
1;
#X floatatom 614 228 5 0 0 0 - - -, f 5;
#X obj 569 289 expr 60000/$f1;
#X floatatom 654 228 5 0 0 0 - - -, f 5;
#X obj 334 511 * 0.001;
#X obj 624 255 * 4;
#X floatatom 367 374 1 0 0 0 - - -, f 1;
#X obj 334 394 spigot;
#X obj 334 365 t b;
#X obj 405 506 hradio 15 1 0 8 empty empty empty 0 -8 0 10 -262144
-1 -1 0;
#X floatatom 438 437 1 0 0 0 - - -, f 1;
#X obj 405 457 spigot;
#X obj 405 481 counter 0 7;
#X obj 544 460 sel 0 4;
#X obj 544 532 line~;
#X msg 544 509 1;
#X msg 575 509 0 100;
#X obj 631 458 osc~ 100;
#X obj 544 486 change;
#X obj 619 536 dac~ 1 2;
#X obj 620 485 *~;
#X obj 620 509 *~ 0.5;
#X text 450 437 <-- kick drum;
#X obj 207 433 * 0.0001;
#X obj 207 412 + 1000;
#X floatatom 238 367 5 0 0 0 - - -, f 5;
#X floatatom 288 367 5 0 0 0 - - -, f 5;
#X obj 288 391 * 10;
#X text 385 374 <-- inicio aleatorio;
#X msg 238 331 10000;
#X msg 288 331 0;
#X obj 268 288 bng 15 250 50 0 empty empty empty 17 7 0 10 -262144
-1 -1;
#X text 265 269 reset;
#X obj 207 391 random 10000;
#X text 234 348 tamaño;
#X text 284 348 offset;
#X obj 636 207 t b;
#N canvas 1263 352 450 323 click 0;
#X obj 112 45 inlet;
#X obj 112 147 line;
#X obj 12 165 *~;
#X obj 12 23 noise~;
#X obj 12 145 bp~;
#X floatatom 26 95 5 0 0 0 - - -, f 5;
#X obj 12 187 outlet~;
#X obj 112 77 spigot;
#X obj 212 45 inlet;
#X obj 26 45 loadbang;
#X obj 162 45 inlet;
#X msg 112 125 \$1 \, 0 10;
#X obj 112 97 f;
#X obj 162 97 * 0.01;
#X floatatom 66 95 5 0 0 0 - - -, f 5;
#X msg 66 75 10;
#X obj 66 116 * 0.1;
#X obj 26 116 * 10;
#X msg 172 77 15;
#X msg 26 75 600;
#X connect 0 0 7 0;
#X connect 1 0 2 1;
#X connect 2 0 6 0;
#X connect 3 0 4 0;
#X connect 4 0 2 0;
#X connect 5 0 17 0;
#X connect 7 0 12 0;
#X connect 8 0 7 1;
#X connect 9 0 19 0;
#X connect 9 0 18 0;
#X connect 9 0 15 0;
#X connect 10 0 13 0;
#X connect 11 0 1 0;
#X connect 12 0 11 0;
#X connect 13 0 12 1;
#X connect 14 0 16 0;
#X connect 15 0 14 0;
#X connect 16 0 4 2;
#X connect 17 0 4 1;
#X connect 18 0 13 0;
#X connect 19 0 5 0;
#X restore 334 440 pd click;
#X floatatom 379 420 1 0 0 0 - - -, f 1;
#X obj 334 462 s~ aldac;
#X obj 69 512 r~ aldac;
#X floatatom 343 420 5 0 100 0 - - -, f 5;
#X msg 88 26 read -resize -maxsize 1e+007 \$1 channelL channelR;
#X connect 0 0 22 0;
#X connect 0 0 1 0;
#X connect 1 0 87 0;
#X connect 2 0 3 0;
#X connect 2 0 23 1;
#X connect 3 0 4 0;
#X connect 5 0 10 0;
#X connect 5 0 11 0;
#X connect 7 0 23 0;
#X connect 11 0 15 0;
#X connect 12 0 15 1;
#X connect 13 0 17 0;
#X connect 14 0 18 0;
#X connect 15 0 13 0;
#X connect 15 0 14 0;
#X connect 15 0 28 0;
#X connect 16 0 24 0;
#X connect 17 0 19 0;
#X connect 18 0 19 1;
#X connect 20 0 21 0;
#X connect 22 0 6 0;
#X connect 23 0 5 0;
#X connect 23 1 5 1;
#X connect 25 0 17 1;
#X connect 25 0 18 1;
#X connect 26 0 27 0;
#X connect 27 0 28 0;
#X connect 28 0 29 0;
#X connect 29 0 32 0;
#X connect 30 0 29 1;
#X connect 32 0 31 0;
#X connect 33 0 39 1;
#X connect 34 0 49 0;
#X connect 35 0 53 0;
#X connect 36 0 35 0;
#X connect 37 0 11 1;
#X connect 39 0 38 0;
#X connect 40 0 35 1;
#X connect 41 0 11 1;
#X connect 42 0 6 0;
#X connect 43 0 53 0;
#X connect 44 0 43 1;
#X connect 45 0 43 0;
#X connect 46 0 50 0;
#X connect 47 0 44 0;
#X connect 48 0 50 1;
#X connect 48 0 81 0;
#X connect 49 0 33 0;
#X connect 50 0 47 0;
#X connect 51 0 52 1;
#X connect 52 0 78 0;
#X connect 53 0 52 0;
#X connect 53 0 39 0;
#X connect 53 0 56 0;
#X connect 53 0 82 0;
#X connect 54 0 58 0;
#X connect 55 0 56 1;
#X connect 56 0 57 0;
#X connect 57 0 54 0;
#X connect 58 0 63 0;
#X connect 58 1 63 0;
#X connect 59 0 65 0;
#X connect 60 0 59 0;
#X connect 61 0 59 0;
#X connect 62 0 65 1;
#X connect 63 0 60 0;
#X connect 63 0 61 0;
#X connect 65 0 66 0;
#X connect 66 0 64 0;
#X connect 66 0 64 1;
#X connect 68 0 39 0;
#X connect 69 0 68 0;
#X connect 70 0 78 1;
#X connect 71 0 72 0;
#X connect 72 0 69 1;
#X connect 74 0 70 0;
#X connect 75 0 71 0;
#X connect 76 0 74 0;
#X connect 76 0 75 0;
#X connect 78 0 69 0;
#X connect 81 0 46 0;
#X connect 82 0 84 0;
#X connect 83 0 82 2;
#X connect 85 0 19 1;
#X connect 85 0 19 0;
#X connect 86 0 82 1;
#X connect 87 0 2 0;
