#N canvas 57 160 749 645 10;
#X obj 91 7 bng 15 250 50 0 empty empty empty 17 7 0 10 -262144 -1
-1;
#X obj 91 46 openpanel;
#X obj 91 97 soundfiler;
#X floatatom 116 128 10 0 0 0 - - -, f 10;
#X obj 116 151 s sampleSize;
#X obj 10 190 expr $f1 / $f2;
#X floatatom 235 46 10 0 0 0 sampleRate - sampleRate, f 10;
#X obj 10 133 r sampleRate;
#N canvas 0 0 450 300 (subpatch) 0;
#X array channelL 44102 float 2 black black;
#X coords 0 1 44102 -1 200 140 1;
#X restore 517 26 graph;
#N canvas 0 0 450 300 (subpatch) 0;
#X array channelR 44102 float 2 black black;
#X coords 0 1 44102 -1 200 140 1;
#X restore 517 186 graph;
#X floatatom 55 223 10 0 0 0 - - -, f 10;
#X obj 11 265 phasor~;
#X obj 67 282 r sampleSize;
#X obj 11 456 tabread4~ channelL;
#X obj 27 490 tabread4~ channelR;
#X obj 11 301 *~;
#X obj 158 447 vsl 15 128 0 1 0 0 empty empty volume 0 -9 0 10 -262144
-1 -1 0 1;
#X obj 11 549 *~;
#X obj 56 549 *~;
#X obj 11 583 dac~ 1 2;
#X obj 6 7 tgl 15 0 empty empty empty 17 7 0 10 -262144 -1 -1 0 1;
#X msg 6 28 \; pd dsp \$1;
#X msg 235 22 44100;
#X obj 52 161 bondo 2;
#X obj 158 583 s volume;
#X obj 71 522 r volume;
#X obj 159 275 tgl 15 0 empty empty empty 17 7 0 10 -262144 -1 -1 0
1;
#X obj 159 295 metro 50;
#X obj 159 317 snapshot~;
#X obj 159 362 /;
#X obj 174 341 r sampleSize;
#X obj 517 336 hsl 195 15 0 1 0 0 empty empty empty -2 -8 0 10 -262144
-1 -1 0 1;
#X floatatom 159 386 5 0 0 0 - - -, f 5;
#X msg 285 22 48000;
#X msg 91 71 read -resize -maxsize 1e+007 \$1 channelL channelR;
#X connect 0 0 22 0;
#X connect 0 0 1 0;
#X connect 1 0 34 0;
#X connect 2 0 3 0;
#X connect 2 0 23 1;
#X connect 3 0 4 0;
#X connect 5 0 10 0;
#X connect 5 0 11 0;
#X connect 7 0 23 0;
#X connect 11 0 15 0;
#X connect 12 0 15 1;
#X connect 13 0 17 0;
#X connect 14 0 18 0;
#X connect 15 0 13 0;
#X connect 15 0 14 0;
#X connect 15 0 28 0;
#X connect 16 0 24 0;
#X connect 17 0 19 0;
#X connect 18 0 19 1;
#X connect 20 0 21 0;
#X connect 22 0 6 0;
#X connect 23 0 5 0;
#X connect 23 1 5 1;
#X connect 25 0 17 1;
#X connect 25 0 18 1;
#X connect 26 0 27 0;
#X connect 27 0 28 0;
#X connect 28 0 29 0;
#X connect 29 0 32 0;
#X connect 30 0 29 1;
#X connect 32 0 31 0;
#X connect 33 0 6 0;
#X connect 34 0 2 0;
