#N canvas 69 204 1046 591 10;
#X floatatom 2 134 5 10 10000 0 - - -;
#X obj -49 157 pipe 1000;
#X obj -49 91 bng 15 250 50 0 empty empty empty 17 7 0 10 -262144 -1
-1;
#X obj -49 205 spigot;
#X floatatom -16 183 1 0 1 0 - - -;
#X obj -109 23 inlet;
#X obj -105 114 outlet;
#X obj -23 23 inlet;
#X obj -49 67 r bang2;
#X obj -49 230 s bang2;
#X connect 0 0 1 1;
#X connect 1 0 3 0;
#X connect 2 0 1 0;
#X connect 2 0 6 0;
#X connect 3 0 9 0;
#X connect 4 0 3 1;
#X connect 5 0 4 0;
#X connect 5 0 2 0;
#X connect 7 0 0 0;
#X connect 8 0 2 0;
