#N canvas 283 307 282 287 10;
#X obj 5 206 line~;
#X obj 5 46 soundfiler;
#X floatatom 80 77 10 0 0 0 - - -, f 10;
#N canvas 0 0 450 300 (subpatch) 0;
#X array \$0-mono 18095 float 2 black black;
#X coords 0 1 18095 -1 100 70 1;
#X restore 170 61 graph;
#X obj 15 136 inlet;
#X obj 5 256 outlet~;
#X msg 5 186 0 \, \$1 \$2;
#X obj 5 166 pack f f;
#X obj 50 98 expr $f1 / 44.1;
#X floatatom 80 127 10 0 0 0 - - -, f 10;
#X obj 5 6 inlet;
#X msg 5 26 read -resize \$1 \$0-mono;
#X obj 5 236 tabread~ \$0-mono;
#X connect 0 0 12 0;
#X connect 1 0 2 0;
#X connect 1 0 7 0;
#X connect 1 0 8 0;
#X connect 4 0 7 0;
#X connect 6 0 0 0;
#X connect 7 0 6 0;
#X connect 8 0 7 1;
#X connect 8 0 9 0;
#X connect 10 0 11 0;
#X connect 11 0 1 0;
#X connect 12 0 5 0;
