#N canvas 669 146 1029 761 10;
#N canvas 906 289 314 349 drums 0;
#X obj 15 5 loadbang;
#X obj 85 85 outlet~;
#X obj 135 85 outlet~;
#X obj 85 55 sampler;
#X obj 124 5 inlet;
#X msg 15 25 symbol drums.wav;
#X connect 0 0 5 0;
#X connect 3 0 1 0;
#X connect 3 1 2 0;
#X connect 4 0 3 1;
#X connect 5 0 3 0;
#X restore 16 299 pd drums;
#X obj 146 441 *~;
#X obj 221 413 hsl 128 15 0 1 0 0 empty empty empty -2 -8 0 10 -262144
-1 -1 0 1;
#X obj 146 473 dac~;
#X obj 186 441 *~;
#X obj 16 279 bng 15 250 50 0 empty empty empty 17 7 0 10 -262144 -1
-1;
#X obj 86 279 bng 15 250 50 0 empty empty empty 17 7 0 10 -262144 -1
-1;
#X obj 156 279 bng 15 250 50 0 empty empty empty 17 7 0 10 -262144
-1 -1;
#X obj 16 73 tgl 15 0 empty empty empty 17 7 0 10 -262144 -1 -1 0 1
;
#X obj 16 123 metro;
#X obj 43 31 loadbang;
#X obj 43 73 bpmtoms;
#X msg 43 52 146.23;
#X obj 16 175 f;
#X obj 46 175 + 1;
#X obj 16 219 sel 0;
#X obj 16 145 t b b b;
#X obj 16 197 % 32;
#X obj 43 98 / 2;
#X obj 86 175 random 8;
#X obj 156 175 random 8;
#X obj 237 279 bng 15 250 50 0 empty empty empty 17 7 0 10 -262144
-1 -1;
#N canvas 925 284 314 326 guitar-lo 0;
#X obj 15 5 loadbang;
#X obj 85 85 outlet~;
#X obj 135 85 outlet~;
#X obj 85 55 sampler;
#X obj 124 5 inlet;
#X msg 15 25 symbol guitar-lo.wav;
#X connect 0 0 5 0;
#X connect 3 0 1 0;
#X connect 3 1 2 0;
#X connect 4 0 3 1;
#X connect 5 0 3 0;
#X restore 156 299 pd guitar-lo;
#N canvas 925 284 314 326 bass-lo 0;
#X obj 15 5 loadbang;
#X obj 65 85 outlet~;
#X obj 134 5 inlet;
#X obj 65 55 sampler-mono;
#X msg 15 25 symbol bass-lo.wav;
#X connect 0 0 4 0;
#X connect 2 0 3 1;
#X connect 3 0 1 0;
#X connect 4 0 3 0;
#X restore 86 299 pd bass-lo;
#N canvas 925 284 314 326 bass-hi 0;
#X obj 15 5 loadbang;
#X obj 65 85 outlet~;
#X obj 134 5 inlet;
#X obj 65 55 sampler-mono;
#X msg 15 25 symbol bass-hi.wav;
#X connect 0 0 4 0;
#X connect 2 0 3 1;
#X connect 3 0 1 0;
#X connect 4 0 3 0;
#X restore 237 299 pd bass-hi;
#X obj 306 279 bng 15 250 50 0 empty empty empty 17 7 0 10 -262144
-1 -1;
#N canvas 925 284 314 326 guitar-hi 0;
#X obj 15 5 loadbang;
#X obj 85 85 outlet~;
#X obj 135 85 outlet~;
#X obj 85 55 sampler;
#X obj 124 5 inlet;
#X msg 15 25 symbol guitar-hi.wav;
#X connect 0 0 5 0;
#X connect 3 0 1 0;
#X connect 3 1 2 0;
#X connect 4 0 3 1;
#X connect 5 0 3 0;
#X restore 306 299 pd guitar-hi;
#X floatatom 131 135 5 0 0 0 - - -, f 5;
#X obj 86 197 sel 0 1 2;
#X obj 156 197 sel 0 1 2;
#X msg 169 38 \; pd dsp 1;
#X connect 0 0 1 0;
#X connect 0 1 4 0;
#X connect 1 0 3 0;
#X connect 2 0 1 1;
#X connect 2 0 4 1;
#X connect 4 0 3 1;
#X connect 5 0 0 0;
#X connect 6 0 23 0;
#X connect 7 0 22 0;
#X connect 8 0 9 0;
#X connect 9 0 16 0;
#X connect 10 0 12 0;
#X connect 11 0 18 0;
#X connect 12 0 11 0;
#X connect 13 0 14 0;
#X connect 13 0 17 0;
#X connect 14 0 13 1;
#X connect 15 0 5 0;
#X connect 16 0 13 0;
#X connect 16 1 19 0;
#X connect 16 2 20 0;
#X connect 17 0 15 0;
#X connect 18 0 9 1;
#X connect 19 0 28 0;
#X connect 20 0 29 0;
#X connect 21 0 24 0;
#X connect 22 0 1 0;
#X connect 22 1 4 0;
#X connect 23 0 4 0;
#X connect 23 0 1 0;
#X connect 24 0 1 0;
#X connect 24 0 4 0;
#X connect 25 0 26 0;
#X connect 26 0 1 0;
#X connect 26 1 4 0;
#X connect 27 0 19 1;
#X connect 27 0 20 1;
#X connect 28 0 6 0;
#X connect 28 1 21 0;
#X connect 28 2 6 0;
#X connect 28 2 7 0;
#X connect 29 0 7 0;
#X connect 29 1 25 0;
#X connect 29 2 21 0;
#X connect 29 2 25 0;
