#N canvas 236 262 755 519 10;
#X obj 492 193 reproductor;
#X obj 500 291 *~;
#X obj 545 291 *~;
#X obj 500 315 dac~ 1 2;
#X obj 515 264 r volume;
#X obj 599 313 vsl 15 128 0 1 0 0 empty empty volume 0 -9 0 10 -262144
-1 -1 7600 1;
#X obj 599 449 s volume;
#X obj 68 18 tgl 15 0 empty empty empty 17 7 0 10 -262144 -1 -1 1 1
;
#X floatatom 119 28 5 0 0 0 - - -, f 5;
#X obj 68 120 f;
#X obj 98 120 + 1;
#X obj 68 152 mod 16;
#X obj 68 174 hradio 15 0 0 16 empty empty empty 0 -8 0 10 -262144
-1 -1 1;
#X obj 78 226 nodo;
#X floatatom 138 140 5 0 0 0 - - -, f 5;
#X obj 68 316 nodo;
#X obj 78 194 sel 0 1 2 3 4 5 6 7;
#X obj 68 284 sel 8 9 10 11 12 13 14 15;
#X obj 118 226 nodo;
#X obj 158 226 nodo;
#X obj 198 226 nodo;
#X obj 238 226 nodo;
#X obj 278 226 nodo;
#X obj 318 226 nodo;
#X obj 358 226 nodo;
#X obj 108 316 nodo;
#X obj 148 316 nodo;
#X obj 188 316 nodo;
#X obj 228 316 nodo;
#X obj 268 316 nodo;
#X obj 308 316 nodo;
#X obj 348 316 nodo;
#X text 399 244 offset;
#X text 399 263 semitones;
#X obj 183 453 hsl 195 15 0 1 0 0 empty empty empty -2 -8 0 10 -262144
-1 -1 9250 1;
#X floatatom 183 407 5 0 1000 0 - - -, f 5;
#X obj 128 453 s phase;
#X obj 128 430 f;
#X obj 183 430 * 0.001;
#X obj 138 120 s beat;
#X obj 128 400 r beat;
#X obj 68 90 demux;
#X obj 95 70 tgl 15 0 empty empty empty 17 7 0 10 -262144 -1 -1 0 1
;
#X msg 38 120 0;
#X obj 68 48 metro 200;
#X text 181 386 manual offset;
#X text 113 68 manual/sequencer;
#X text 207 154 sequencer offset;
#X obj 492 133 tgl 15 0 empty empty empty 17 7 0 10 -262144 -1 -1 1
1;
#X msg 492 153 \; pd dsp 1;
#X floatatom 324 64 5 0 0 0 - - -, f 5;
#X obj 324 85 s st-global;
#X floatatom 404 64 5 0 0 0 - - -, f 5;
#X obj 404 85 s os-global;
#X connect 0 0 1 0;
#X connect 0 1 2 0;
#X connect 1 0 3 0;
#X connect 2 0 3 1;
#X connect 4 0 1 1;
#X connect 4 0 2 1;
#X connect 5 0 6 0;
#X connect 7 0 44 0;
#X connect 8 0 44 1;
#X connect 9 0 10 0;
#X connect 9 0 11 0;
#X connect 10 0 9 1;
#X connect 11 0 12 0;
#X connect 12 0 16 0;
#X connect 12 0 17 0;
#X connect 14 0 11 1;
#X connect 16 0 13 0;
#X connect 16 1 18 0;
#X connect 16 2 19 0;
#X connect 16 3 20 0;
#X connect 16 4 21 0;
#X connect 16 5 22 0;
#X connect 16 6 23 0;
#X connect 16 7 24 0;
#X connect 17 0 15 0;
#X connect 17 1 25 0;
#X connect 17 2 26 0;
#X connect 17 3 27 0;
#X connect 17 4 28 0;
#X connect 17 5 29 0;
#X connect 17 6 30 0;
#X connect 17 7 31 0;
#X connect 34 0 37 1;
#X connect 35 0 38 0;
#X connect 37 0 36 0;
#X connect 38 0 34 0;
#X connect 40 0 37 0;
#X connect 41 0 9 0;
#X connect 41 1 39 0;
#X connect 42 0 41 1;
#X connect 43 0 9 0;
#X connect 44 0 41 0;
#X connect 48 0 49 0;
#X connect 50 0 51 0;
#X connect 52 0 53 0;
