#N canvas 940 181 749 645 10;
#X obj 102 102 bng 15 250 50 0 empty empty load 17 7 0 10 -262144 -1
-1;
#X obj 312 99 openpanel;
#X obj 312 150 soundfiler;
#X floatatom 337 180 10 0 0 0 - - -, f 10;
#X obj 337 200 s sampleSize;
#X obj 231 243 expr $f1 / $f2;
#X floatatom 240 102 10 0 0 0 sampleRate - sampleRate, f 10;
#X obj 231 186 r sampleRate;
#X floatatom 271 273 10 0 0 0 - - -, f 10;
#X obj 231 318 phasor~;
#X obj 287 335 r sampleSize;
#X obj 231 354 *~;
#X obj 273 214 bondo 2;
#X obj 131 338 tgl 15 0 empty empty empty 17 7 0 10 -262144 -1 -1 1
1;
#X obj 131 358 metro 50;
#X obj 131 380 snapshot~;
#X obj 131 425 /;
#X obj 146 404 r sampleSize;
#X obj 102 123 hsl 195 15 0 1 0 0 empty empty empty -2 -8 0 10 -262144
-1 -1 7432 1;
#X floatatom 270 142 5 0 0 0 position position -, f 5;
#X obj 231 451 outlet~;
#X obj 281 451 outlet~;
#X obj 131 447 s position;
#X obj 131 318 loadbang;
#X obj 280 52 loadbang;
#X msg 280 74 44100;
#X msg 312 124 read -resize -maxsize 1e+007 \$1 \$0-channelL \$0-channelR
;
#X obj 516 152 table \$0-channelL;
#X obj 516 174 table \$0-channelR;
#X obj 86 163 r semitones;
#X floatatom 86 225 5 0 0 0 - - -, f 5;
#X obj 86 244 expr pow(2 \, $f1 / 12);
#X obj 231 389 tabread4~ \$0-channelL;
#X obj 237 409 tabread4~ \$0-channelR;
#X obj 86 266 *;
#X obj 270 298 r phase;
#X obj 350 298 * 0.001;
#X obj 350 256 r offset;
#X obj 86 205 +;
#X obj 101 185 r st-global;
#X obj 410 256 r os-global;
#X obj 350 278 +;
#X connect 0 0 1 0;
#X connect 1 0 26 0;
#X connect 2 0 3 0;
#X connect 2 0 12 1;
#X connect 3 0 4 0;
#X connect 5 0 8 0;
#X connect 5 0 9 0;
#X connect 5 0 34 1;
#X connect 7 0 12 0;
#X connect 9 0 11 0;
#X connect 10 0 11 1;
#X connect 11 0 15 0;
#X connect 11 0 32 0;
#X connect 11 0 33 0;
#X connect 12 0 5 0;
#X connect 12 1 5 1;
#X connect 13 0 14 0;
#X connect 14 0 15 0;
#X connect 15 0 16 0;
#X connect 16 0 22 0;
#X connect 17 0 16 1;
#X connect 19 0 18 0;
#X connect 23 0 13 0;
#X connect 24 0 25 0;
#X connect 25 0 6 0;
#X connect 26 0 2 0;
#X connect 29 0 38 0;
#X connect 30 0 31 0;
#X connect 31 0 34 0;
#X connect 32 0 20 0;
#X connect 33 0 21 0;
#X connect 34 0 9 0;
#X connect 35 0 9 1;
#X connect 36 0 9 1;
#X connect 37 0 41 0;
#X connect 38 0 30 0;
#X connect 39 0 38 1;
#X connect 40 0 41 1;
#X connect 41 0 36 0;
#X coords 0 -1 1 1 205 60 2 100 100;
